<?xml version="1.0" encoding="UTF-8"?>
<svg width="1024px" height="1024px" viewBox="0 0 1024 1024" version="1.1" xmlns="http://www.w3.org/2000/svg" xmlns:xlink="http://www.w3.org/1999/xlink">
    <title>codesandbox</title>
    <g id="页面-1" stroke="none" stroke-width="1" fill="none" fill-rule="evenodd">
        <g id="codesandbox">
            <rect id="矩形" x="0" y="0" width="1024" height="1024"></rect>
            <path d="M755.4,140.3 L755.9,140 L756.2,140 L512.4,0 L268.7,140 L268.4,140 L269.2,140.4 L69,256 L69,768 L512.4,1024 L955.8,768 L955.8,256 L755.4,140.3 Z M725.4,646.7 L725.4,817.9 L548.4,920.1 L548.4,534.7 L883.8,341 L883.8,556.7 L725.4,646.7 Z M141,556.1 L141,340.8 L476.4,534.4 L476.4,920.1 L300.4,818.5 L300.4,646.7 L141,556.1 Z M512.1,280 L683.2,181.7 L849.5,277.7 L512.6,472.2 L175.6,277.6 L341.3,181.9 L512.1,280 Z" id="形状" fill="#000000" fill-rule="nonzero"></path>
        </g>
    </g>
</svg>